<svg xmlns="http://www.w3.org/2000/svg" xml:space="preserve" style="fill-rule:evenodd;clip-rule:evenodd;stroke-linejoin:round;stroke-miterlimit:2" viewBox="0 0 923 287"><path d="m.005 0 .357-.714h.156L.875 0H.731L.414-.654h.043L.138 0zm.179-.172v-.099h.5v.099z" style="fill: currentColor;fill-rule:nonzero" transform="translate(229.87 127.754)scale(70.48756)"/><path d="M.055-.714H.18V0H.055z" style="fill: currentColor;fill-rule:nonzero" transform="translate(291.865 127.754)scale(70.48756)"/><path d="M.3 0a.18.18 0 0 1-.122-.039.14.14 0 0 1-.044-.111v-.502h.125v.484q0 .041.023.061.022.02.058.02h.099v.088zM.012-.427v-.087H.15v.087zm.231 0v-.087h.196v.087z" style="fill: currentColor;fill-rule:nonzero" transform="translate(308.427 127.754)scale(70.48756)"/><path d="M.247.013a.27.27 0 0 1-.157-.04.13.13 0 0 1-.056-.112q0-.043.022-.075a.16.16 0 0 1 .065-.051.3.3 0 0 1 .107-.026l.227-.025a.1.1 0 0 0 .039-.013.04.04 0 0 0 .013-.03V-.36a.06.06 0 0 0-.019-.044.13.13 0 0 0-.054-.028.3.3 0 0 0-.084-.009.3.3 0 0 0-.115.018q-.042.018-.05.055H.06a.15.15 0 0 1 .044-.087.23.23 0 0 1 .099-.054.6.6 0 0 1 .15-.019q.093 0 .155.021a.2.2 0 0 1 .093.061.16.16 0 0 1 .031.102v.345h-.12V-.16l.013.016a.24.24 0 0 1-.062.086.3.3 0 0 1-.094.054.4.4 0 0 1-.122.018Zm.041-.089a.26.26 0 0 0 .155-.048.2.2 0 0 0 .047-.052.13.13 0 0 0 .017-.063v-.059l.021.03a.2.2 0 0 1-.039.015l-.064.011-.182.023a.1.1 0 0 0-.059.021.06.06 0 0 0-.019.044q0 .037.031.057a.2.2 0 0 0 .093.019Z" style="fill: currentColor;fill-rule:nonzero" transform="translate(341.221 127.754)scale(70.48756)"/><path d="M.054 0v-.514h.125v.136l-.013-.01A.2.2 0 0 1 .218-.47.2.2 0 0 1 .29-.514a.26.26 0 0 1 .171.002.2.2 0 0 1 .068.047.2.2 0 0 1 .039.082L.549-.384a.2.2 0 0 1 .048-.084.2.2 0 0 1 .075-.045.3.3 0 0 1 .087-.014q.062 0 .108.026a.17.17 0 0 1 .071.075.3.3 0 0 1 .025.12v.307H.839V-.29a.2.2 0 0 0-.015-.081.1.1 0 0 0-.042-.046.13.13 0 0 0-.064-.015.14.14 0 0 0-.075.019.13.13 0 0 0-.053.054.2.2 0 0 0-.019.083v.278H.446v-.291q0-.075-.033-.109a.12.12 0 0 0-.088-.034.14.14 0 0 0-.075.019.13.13 0 0 0-.053.054.2.2 0 0 0-.02.083v.278H.052Z" style="fill: currentColor;fill-rule:nonzero" transform="translate(389.108 127.754)scale(70.48756)"/><path d="M.056 0v-.514h.125V0zM.052-.597v-.117h.134v.117z" style="fill: currentColor;fill-rule:nonzero" transform="translate(460.49 127.754)scale(70.48756)"/><path d="M.054 0v-.514h.125v.175l-.01-.004a.3.3 0 0 1 .04-.101.16.16 0 0 1 .066-.054.2.2 0 0 1 .089-.017h.057v.107H.358a.18.18 0 0 0-.157.095.2.2 0 0 0-.022.096v.216H.054Z" style="fill: currentColor;fill-rule:nonzero" transform="translate(477.262 127.754)scale(70.48756)"/><path d="M.247.013a.27.27 0 0 1-.157-.04.13.13 0 0 1-.056-.112q0-.043.022-.075a.16.16 0 0 1 .065-.051.3.3 0 0 1 .107-.026l.227-.025a.1.1 0 0 0 .039-.013.04.04 0 0 0 .013-.03V-.36a.06.06 0 0 0-.019-.044.13.13 0 0 0-.054-.028.3.3 0 0 0-.084-.009.3.3 0 0 0-.115.018q-.042.018-.05.055H.06a.15.15 0 0 1 .044-.087.23.23 0 0 1 .099-.054.6.6 0 0 1 .15-.019q.093 0 .155.021a.2.2 0 0 1 .093.061.16.16 0 0 1 .031.102v.345h-.12V-.16l.013.016a.24.24 0 0 1-.062.086.3.3 0 0 1-.094.054.4.4 0 0 1-.122.018Zm.041-.089a.26.26 0 0 0 .155-.048.2.2 0 0 0 .047-.052.13.13 0 0 0 .017-.063v-.059l.021.03a.2.2 0 0 1-.039.015l-.064.011-.182.023a.1.1 0 0 0-.059.021.06.06 0 0 0-.019.044q0 .037.031.057a.2.2 0 0 0 .093.019Z" style="fill: currentColor;fill-rule:nonzero" transform="translate(507.588 127.754)scale(70.48756)"/><path d="M.054 0v-.514h.125v.149L.167-.381a.2.2 0 0 1 .057-.083.2.2 0 0 1 .086-.048.3.3 0 0 1 .108-.016q.06 0 .106.016.047.015.078.047a.2.2 0 0 1 .049.076q.017.045.017.104V0H.543v-.26a.2.2 0 0 0-.019-.093.13.13 0 0 0-.057-.06.2.2 0 0 0-.097-.021.2.2 0 0 0-.103.023.17.17 0 0 0-.091.155V0H.051Z" style="fill: currentColor;fill-rule:nonzero" transform="translate(555.474 127.754)scale(70.48756)"/><path d="M.365.014A.4.4 0 0 1 .188-.02a.26.26 0 0 1-.115-.095.25.25 0 0 1-.04-.143q0-.049.015-.091a.2.2 0 0 1 .043-.075.3.3 0 0 1 .069-.057.3.3 0 0 1 .092-.036.5.5 0 0 1 .291.021q.075.033.115.094a.25.25 0 0 1 .04.143.3.3 0 0 1-.015.091.2.2 0 0 1-.043.075.3.3 0 0 1-.069.057A.4.4 0 0 1 .478 0a.5.5 0 0 1-.114.012Zm0-.092a.3.3 0 0 0 .074-.009.17.17 0 0 0 .098-.064A.2.2 0 0 0 .561-.2a.2.2 0 0 0 .008-.057.2.2 0 0 0-.022-.091.16.16 0 0 0-.067-.064.24.24 0 0 0-.114-.023.3.3 0 0 0-.073.009.2.2 0 0 0-.098.063.17.17 0 0 0-.033.106q0 .05.023.091a.16.16 0 0 0 .068.065.24.24 0 0 0 .113.024Z" style="fill: currentColor;fill-rule:nonzero" transform="translate(606.094 127.754)scale(70.48756)"/><path d="M.07 0v-.714h.49q.07 0 .122.023a.2.2 0 0 1 .081.066.2.2 0 0 1 .029.106.2.2 0 0 1-.019.088.16.16 0 0 1-.057.064.2.2 0 0 1-.095.032v-.009a.2.2 0 0 1 .08.018.1.1 0 0 1 .045.043.3.3 0 0 1 .028.071l.061.213H.7L.644-.198a.13.13 0 0 0-.035-.064Q.585-.283.539-.283H.198v.284h-.13ZM.2-.385h.334a.2.2 0 0 0 .063-.012.1.1 0 0 0 .043-.038.13.13 0 0 0 .015-.066q0-.056-.034-.083a.14.14 0 0 0-.087-.027H.2v.227Z" style="fill: currentColor;fill-rule:nonzero" transform="translate(677.995 127.754)scale(70.48756)"/><path d="M.365.014A.4.4 0 0 1 .188-.02a.26.26 0 0 1-.115-.095.25.25 0 0 1-.04-.143q0-.049.015-.091a.2.2 0 0 1 .043-.075.3.3 0 0 1 .069-.057.3.3 0 0 1 .092-.036.5.5 0 0 1 .291.021q.075.033.115.094a.25.25 0 0 1 .04.143.3.3 0 0 1-.015.091.2.2 0 0 1-.043.075.3.3 0 0 1-.069.057A.4.4 0 0 1 .478 0a.5.5 0 0 1-.114.012Zm0-.092a.3.3 0 0 0 .074-.009.17.17 0 0 0 .098-.064A.2.2 0 0 0 .561-.2a.2.2 0 0 0 .008-.057.2.2 0 0 0-.022-.091.16.16 0 0 0-.067-.064.24.24 0 0 0-.114-.023.3.3 0 0 0-.073.009.2.2 0 0 0-.098.063.17.17 0 0 0-.033.106q0 .05.023.091a.16.16 0 0 0 .068.065.24.24 0 0 0 .113.024Z" style="fill: currentColor;fill-rule:nonzero" transform="translate(738.075 127.754)scale(70.48756)"/><path d="M.371.204a.5.5 0 0 1-.15-.019A.3.3 0 0 1 .115.13.16.16 0 0 1 .064.04h.127A.1.1 0 0 0 .253.1a.3.3 0 0 0 .12.018.3.3 0 0 0 .103-.017.15.15 0 0 0 .068-.048.12.12 0 0 0 .024-.075v-.14l.013.021a.2.2 0 0 1-.062.07.3.3 0 0 1-.089.044.38.38 0 0 1-.253-.016.25.25 0 0 1-.105-.089.25.25 0 0 1-.039-.14q0-.049.014-.089a.23.23 0 0 1 .104-.125.35.35 0 0 1 .278-.03q.05.015.089.043a.2.2 0 0 1 .062.071l-.013.02v-.134h.125v.491a.2.2 0 0 1-.027.102.2.2 0 0 1-.072.071.3.3 0 0 1-.103.041.5.5 0 0 1-.12.013Zm-.01-.308A.3.3 0 0 0 .43-.112a.2.2 0 0 0 .058-.022.15.15 0 0 0 .072-.081.2.2 0 0 0 .01-.056.15.15 0 0 0-.027-.088.2.2 0 0 0-.074-.058.3.3 0 0 0-.176-.012.2.2 0 0 0-.097.056.2.2 0 0 0-.026.046.2.2 0 0 0-.009.056q0 .05.024.088a.16.16 0 0 0 .069.058q.045.02.106.02Z" style="fill: currentColor;fill-rule:nonzero" transform="translate(789.573 127.754)scale(70.48756)"/><path d="M.361.014A.4.4 0 0 1 .186-.02a.25.25 0 0 1-.154-.238q0-.049.015-.091A.2.2 0 0 1 .09-.424a.3.3 0 0 1 .16-.093.5.5 0 0 1 .244.005q.06.018.102.054.043.037.064.094a.4.4 0 0 1 .02.136H.111v-.077h.441a.2.2 0 0 0-.02-.058.1.1 0 0 0-.04-.042.2.2 0 0 0-.057-.026.3.3 0 0 0-.073-.009.3.3 0 0 0-.073.009.2.2 0 0 0-.058.025.2.2 0 0 0-.041.038.2.2 0 0 0-.034.11q0 .052.023.094a.16.16 0 0 0 .07.065.25.25 0 0 0 .114.024.3.3 0 0 0 .111-.018.14.14 0 0 0 .065-.052h.13a.2.2 0 0 1-.052.081.3.3 0 0 1-.1.057.5.5 0 0 1-.157.021Z" style="fill: currentColor;fill-rule:nonzero" transform="translate(842.27 127.754)scale(70.48756)"/><path d="M.054 0v-.514h.125v.175l-.01-.004a.3.3 0 0 1 .04-.101.16.16 0 0 1 .066-.054.2.2 0 0 1 .089-.017h.057v.107H.358a.18.18 0 0 0-.157.095.2.2 0 0 0-.022.096v.216H.054Z" style="fill: currentColor;fill-rule:nonzero" transform="translate(892.481 127.754)scale(70.48756)"/><path d="M.078 0v-.714h.084v.645h.524V0z" style="fill: currentColor;fill-rule:nonzero" transform="translate(225.674 196.883)scale(58.03385)"/><path d="M.063 0v-.514h.081V0zM.057-.613v-.101h.094v.101z" style="fill: currentColor;fill-rule:nonzero" transform="translate(267.202 196.883)scale(58.03385)"/><path d="M.358.014A.4.4 0 0 1 .19-.019a.26.26 0 0 1-.152-.239q0-.05.014-.091a.2.2 0 0 1 .043-.075.3.3 0 0 1 .067-.056.3.3 0 0 1 .089-.035.46.46 0 0 1 .251.011.3.3 0 0 1 .103.063.17.17 0 0 1 .05.089H.569A.2.2 0 0 0 .53-.406a.2.2 0 0 0-.069-.041.3.3 0 0 0-.102-.016.3.3 0 0 0-.084.01.3.3 0 0 0-.066.028.18.18 0 0 0-.086.168q0 .06.027.106a.2.2 0 0 0 .079.074.3.3 0 0 0 .13.027.26.26 0 0 0 .138-.032.2.2 0 0 0 .072-.078h.086a.2.2 0 0 1-.052.091.3.3 0 0 1-.102.062.4.4 0 0 1-.143.022Z" style="fill: currentColor;fill-rule:nonzero" transform="translate(279.26 196.883)scale(58.03385)"/><path d="M.076-.109h.11V0h-.11z" style="fill: currentColor;fill-rule:nonzero" transform="translate(319.049 196.883)scale(58.03385)"/><path d="M.078 0v-.714H.54q.05 0 .091.013a.2.2 0 0 1 .073.04q.031.027.048.066a.2.2 0 0 1 .017.091.2.2 0 0 1-.017.091.2.2 0 0 1-.121.104.3.3 0 0 1-.091.013H.163v.297zm.085-.366h.365q.049 0 .083-.017a.1.1 0 0 0 .051-.048.15.15 0 0 0 .018-.074.14.14 0 0 0-.039-.103.16.16 0 0 0-.112-.038H.164v.28Z" style="fill: currentColor;fill-rule:nonzero" transform="translate(334.256 196.883)scale(58.03385)"/><path d="M.32.014A.5.5 0 0 1 .191 0a.3.3 0 0 1-.086-.038.2.2 0 0 1-.049-.053.2.2 0 0 1-.019-.059h.084q.006.022.025.045a.15.15 0 0 0 .061.039.3.3 0 0 0 .113.016.4.4 0 0 0 .11-.012.12.12 0 0 0 .059-.033.07.07 0 0 0 .018-.045.06.06 0 0 0-.022-.047Q.463-.21.401-.217L.225-.242a.3.3 0 0 1-.132-.045.1.1 0 0 1-.042-.09q0-.032.016-.059a.2.2 0 0 1 .048-.048.3.3 0 0 1 .081-.032.5.5 0 0 1 .115-.012q.084 0 .141.019t.087.053.038.078H.493a.1.1 0 0 0-.025-.043.14.14 0 0 0-.056-.032.3.3 0 0 0-.1-.012.4.4 0 0 0-.098.011.13.13 0 0 0-.058.029.06.06 0 0 0-.019.043q0 .03.025.048a.2.2 0 0 0 .075.024l.169.023a.4.4 0 0 1 .1.024q.042.017.066.045a.1.1 0 0 1 .023.073.12.12 0 0 1-.019.069.15.15 0 0 1-.055.049.3.3 0 0 1-.086.03.6.6 0 0 1-.113.01Z" style="fill: currentColor;fill-rule:nonzero" transform="translate(381.53 196.883)scale(58.03385)"/><path d="M.063 0v-.514h.081V0zM.057-.613v-.101h.094v.101z" style="fill: currentColor;fill-rule:nonzero" transform="translate(418.04 196.883)scale(58.03385)"/><path d="M.358.014A.4.4 0 0 1 .19-.019a.26.26 0 0 1-.152-.239q0-.05.014-.091a.2.2 0 0 1 .043-.075.3.3 0 0 1 .067-.056.3.3 0 0 1 .089-.035.46.46 0 0 1 .251.011.3.3 0 0 1 .103.063.17.17 0 0 1 .05.089H.569A.2.2 0 0 0 .53-.406a.2.2 0 0 0-.069-.041.3.3 0 0 0-.102-.016.3.3 0 0 0-.084.01.3.3 0 0 0-.066.028.18.18 0 0 0-.086.168q0 .06.027.106a.2.2 0 0 0 .079.074.3.3 0 0 0 .13.027.26.26 0 0 0 .138-.032.2.2 0 0 0 .072-.078h.086a.2.2 0 0 1-.052.091.3.3 0 0 1-.102.062.4.4 0 0 1-.143.022Z" style="fill: currentColor;fill-rule:nonzero" transform="translate(430.1 196.883)scale(58.03385)"/><path d="M.359.014A.4.4 0 0 1 .19-.019a.26.26 0 0 1-.113-.095.26.26 0 0 1-.04-.144q0-.05.015-.091a.2.2 0 0 1 .043-.075.3.3 0 0 1 .067-.056.3.3 0 0 1 .089-.035.46.46 0 0 1 .276.021.26.26 0 0 1 .112.093q.04.06.04.144a.25.25 0 0 1-.124.224.3.3 0 0 1-.089.035.5.5 0 0 1-.108.012Zm0-.064a.3.3 0 0 0 .084-.01.2.2 0 0 0 .066-.029.2.2 0 0 0 .076-.102.2.2 0 0 0 .01-.067.19.19 0 0 0-.105-.179.3.3 0 0 0-.13-.027.3.3 0 0 0-.084.01.3.3 0 0 0-.066.028.18.18 0 0 0-.086.168q0 .059.027.106a.2.2 0 0 0 .079.074.3.3 0 0 0 .129.027Z" style="fill: currentColor;fill-rule:nonzero" transform="translate(470.236 196.883)scale(58.03385)"/><path d="M.062-.714h.081V0H.062z" style="fill: currentColor;fill-rule:nonzero" transform="translate(511.851 196.883)scale(58.03385)"/><path d="M.359.014A.4.4 0 0 1 .19-.019a.26.26 0 0 1-.113-.095.26.26 0 0 1-.04-.144q0-.05.015-.091a.2.2 0 0 1 .043-.075.3.3 0 0 1 .067-.056.3.3 0 0 1 .089-.035.46.46 0 0 1 .276.021.26.26 0 0 1 .112.093q.04.06.04.144a.25.25 0 0 1-.124.224.3.3 0 0 1-.089.035.5.5 0 0 1-.108.012Zm0-.064a.3.3 0 0 0 .084-.01.2.2 0 0 0 .066-.029.2.2 0 0 0 .076-.102.2.2 0 0 0 .01-.067.19.19 0 0 0-.105-.179.3.3 0 0 0-.13-.027.3.3 0 0 0-.084.01.3.3 0 0 0-.066.028.18.18 0 0 0-.086.168q0 .059.027.106a.2.2 0 0 0 .079.074.3.3 0 0 0 .129.027Z" style="fill: currentColor;fill-rule:nonzero" transform="translate(523.79 196.883)scale(58.03385)"/><path d="M.362.204A.5.5 0 0 1 .217.185a.23.23 0 0 1-.1-.054.17.17 0 0 1-.049-.087h.086a.13.13 0 0 0 .072.074.4.4 0 0 0 .139.023A.3.3 0 0 0 .486.12a.2.2 0 0 0 .08-.058.14.14 0 0 0 .028-.086v-.145l.01.011a.2.2 0 0 1-.068.081.3.3 0 0 1-.094.047.4.4 0 0 1-.257-.017.24.24 0 0 1-.145-.226q0-.046.014-.087A.24.24 0 0 1 .16-.484.3.3 0 0 1 .335-.53q.056 0 .107.015.052.015.094.046a.2.2 0 0 1 .068.081l-.01.011v-.138h.08v.497a.2.2 0 0 1-.026.096.2.2 0 0 1-.069.069.3.3 0 0 1-.1.042.5.5 0 0 1-.118.014ZM.351-.077a.3.3 0 0 0 .145-.035.2.2 0 0 0 .086-.095.2.2 0 0 0 .012-.065.17.17 0 0 0-.032-.102.2.2 0 0 0-.087-.067.3.3 0 0 0-.124-.024.3.3 0 0 0-.077.009.2.2 0 0 0-.063.025.18.18 0 0 0-.087.159.18.18 0 0 0 .107.17.3.3 0 0 0 .121.024Z" style="fill: currentColor;fill-rule:nonzero" transform="translate(565.406 196.883)scale(58.03385)"/><path d="M.063 0v-.514h.081V0zm.001-.597.103-.137h.095l-.118.137z" style="fill: currentColor;fill-rule:nonzero" transform="translate(608.036 196.883)scale(58.03385)"/><path d="M.252.013a.26.26 0 0 1-.157-.04.13.13 0 0 1-.055-.112q0-.04.021-.071a.2.2 0 0 1 .06-.05.3.3 0 0 1 .096-.025l.255-.029q.03-.003.043-.015a.04.04 0 0 0 .014-.033v-.001a.08.08 0 0 0-.02-.052.13.13 0 0 0-.06-.036.3.3 0 0 0-.104-.013.3.3 0 0 0-.137.026q-.047.025-.056.066H.07a.14.14 0 0 1 .038-.08A.2.2 0 0 1 .2-.506a.5.5 0 0 1 .145-.02q.093 0 .151.021a.17.17 0 0 1 .086.06.16.16 0 0 1 .028.091v.355H.531v-.17l.008.011a.27.27 0 0 1-.16.153.4.4 0 0 1-.125.02Zm.022-.065a.3.3 0 0 0 .179-.057.2.2 0 0 0 .055-.062.15.15 0 0 0 .02-.074v-.053l.015.021-.039.013-.063.011-.221.028a.14.14 0 0 0-.071.026.07.07 0 0 0-.024.054q0 .046.038.07a.2.2 0 0 0 .111.023" style="fill: currentColor;fill-rule:nonzero" transform="translate(620.095 196.883)scale(58.03385)"/><path d="M161.822 0h-60.6v7.137s41.527-4.643 41.527 22.061v116.146s-69.123 8.984-77.863-70.077c-2.629-23.784-3.49-38.256-8.449-49.314C44.31-1.089 24.468.043 0-.001v7.137s25.954-4.484 25.954 18.817S6.542 161.565 142.749 161.565v84.352s4.711 31.145-41.527 31.145v9.084h60.6" style="fill: currentColor"/></svg>