<?xml version="1.0" encoding="UTF-8" standalone="no"?><!DOCTYPE svg PUBLIC "-//W3C//DTD SVG 1.1//EN" "http://www.w3.org/Graphics/SVG/1.1/DTD/svg11.dtd"><svg width="100%" height="100%" viewBox="0 0 274 69" version="1.1" xmlns="http://www.w3.org/2000/svg" xmlns:xlink="http://www.w3.org/1999/xlink" xml:space="preserve" xmlns:serif="http://www.serif.com/" style="fill-rule:evenodd;clip-rule:evenodd;stroke-linejoin:round;stroke-miterlimit:2;"><g><g transform="matrix(16.917015,0,0,16.917015,86.241363,29.086623)"><path d="M0.005,-0l0.357,-0.714l0.156,0l0.357,0.714l-0.144,-0l-0.317,-0.654l0.043,0l-0.319,0.654l-0.132,-0Zm0.179,-0.172l0,-0.099l0.5,0l0,0.099l-0.5,0Z" style="fill:#0f172a;fill-rule:nonzero;"/></g><g transform="matrix(16.917015,0,0,16.917015,101.120239,29.086623)"><rect x="0.055" y="-0.714" width="0.125" height="0.714" style="fill:#0f172a;fill-rule:nonzero;"/></g><g transform="matrix(16.917015,0,0,16.917015,105.094921,29.086623)"><path d="M0.3,-0c-0.052,-0 -0.093,-0.013 -0.122,-0.039c-0.029,-0.026 -0.044,-0.063 -0.044,-0.111l0,-0.502l0.125,0l0,0.484c0,0.027 0.008,0.048 0.023,0.061c0.015,0.013 0.034,0.02 0.058,0.02l0.099,0l0,0.088l-0.139,-0Zm-0.288,-0.427l-0,-0.087l0.138,0l0,0.087l-0.138,0Zm0.231,0l0,-0.087l0.196,0l0,0.087l-0.196,0Z" style="fill:#0f172a;fill-rule:nonzero;"/></g><g transform="matrix(16.917015,0,0,16.917015,112.965571,29.086623)"><path d="M0.247,0.013c-0.067,0 -0.119,-0.013 -0.157,-0.04c-0.037,-0.027 -0.056,-0.064 -0.056,-0.112c0,-0.029 0.007,-0.054 0.022,-0.075c0.015,-0.021 0.036,-0.038 0.065,-0.051c0.029,-0.013 0.064,-0.022 0.107,-0.026l0.227,-0.025c0.017,-0.002 0.03,-0.006 0.039,-0.013c0.008,-0.007 0.013,-0.017 0.013,-0.03l0,-0.001c0,-0.017 -0.006,-0.032 -0.019,-0.044c-0.013,-0.012 -0.03,-0.021 -0.054,-0.028c-0.023,-0.006 -0.051,-0.009 -0.084,-0.009c-0.049,0 -0.087,0.006 -0.115,0.018c-0.028,0.012 -0.045,0.031 -0.05,0.055l-0.125,0c0.005,-0.034 0.019,-0.063 0.044,-0.087c0.024,-0.024 0.057,-0.041 0.099,-0.054c0.042,-0.012 0.092,-0.019 0.15,-0.019c0.062,0 0.113,0.007 0.155,0.021c0.041,0.014 0.072,0.034 0.093,0.061c0.021,0.027 0.031,0.061 0.031,0.102l0,0.345l-0.12,-0l0,-0.161l0.013,0.016c-0.015,0.034 -0.035,0.063 -0.062,0.086c-0.026,0.024 -0.057,0.041 -0.094,0.054c-0.036,0.012 -0.077,0.018 -0.122,0.018Zm0.041,-0.089c0.03,0 0.059,-0.004 0.085,-0.013c0.026,-0.008 0.05,-0.02 0.07,-0.035c0.02,-0.015 0.036,-0.032 0.047,-0.052c0.011,-0.02 0.017,-0.041 0.017,-0.063l0,-0.059l0.021,0.03c-0.011,0.006 -0.024,0.011 -0.039,0.015c-0.016,0.004 -0.037,0.008 -0.064,0.011l-0.182,0.023c-0.027,0.003 -0.046,0.011 -0.059,0.021c-0.013,0.011 -0.019,0.026 -0.019,0.044c0,0.025 0.01,0.044 0.031,0.057c0.021,0.013 0.052,0.019 0.093,0.019Z" style="fill:#0f172a;fill-rule:nonzero;"/></g><g transform="matrix(16.917015,0,0,16.917015,124.458376,29.086623)"><path d="M0.054,-0l0,-0.514l0.125,0l0,0.136l-0.013,-0.01c0.013,-0.034 0.03,-0.062 0.052,-0.082c0.021,-0.02 0.045,-0.035 0.072,-0.044c0.027,-0.009 0.054,-0.013 0.083,-0.013c0.032,0 0.062,0.005 0.088,0.015c0.027,0.01 0.049,0.026 0.068,0.047c0.018,0.021 0.031,0.049 0.039,0.082l-0.019,-0.001c0.01,-0.035 0.027,-0.064 0.048,-0.084c0.022,-0.021 0.047,-0.036 0.075,-0.045c0.028,-0.009 0.057,-0.014 0.087,-0.014c0.041,0 0.077,0.009 0.108,0.026c0.031,0.017 0.055,0.042 0.071,0.075c0.017,0.033 0.025,0.072 0.025,0.12l0,0.307l-0.124,-0l0,-0.291c0,-0.033 -0.005,-0.06 -0.015,-0.081c-0.01,-0.021 -0.024,-0.037 -0.042,-0.046c-0.018,-0.01 -0.04,-0.015 -0.064,-0.015c-0.028,0 -0.053,0.006 -0.075,0.019c-0.022,0.012 -0.04,0.03 -0.053,0.054c-0.013,0.023 -0.019,0.051 -0.019,0.083l0,0.278l-0.125,-0l0,-0.291c0,-0.05 -0.011,-0.086 -0.033,-0.109c-0.022,-0.023 -0.051,-0.034 -0.088,-0.034c-0.028,0 -0.053,0.006 -0.075,0.019c-0.022,0.012 -0.04,0.03 -0.053,0.054c-0.013,0.023 -0.02,0.051 -0.02,0.083l0,0.278l-0.125,-0Z" style="fill:#0f172a;fill-rule:nonzero;"/></g><g transform="matrix(16.917015,0,0,16.917015,141.59007,29.086623)"><path d="M0.056,-0l0,-0.514l0.125,0l0,0.514l-0.125,-0Zm-0.004,-0.597l0,-0.117l0.134,0l0,0.117l-0.134,0Z" style="fill:#0f172a;fill-rule:nonzero;"/></g><g transform="matrix(16.917015,0,0,16.917015,145.615347,29.086623)"><path d="M0.054,-0l0,-0.514l0.125,0l0,0.175l-0.01,-0.004c0.009,-0.042 0.022,-0.076 0.04,-0.101c0.018,-0.025 0.04,-0.043 0.066,-0.054c0.026,-0.011 0.056,-0.017 0.089,-0.017l0.057,0l0,0.107l-0.063,0c-0.035,0 -0.067,0.009 -0.094,0.026c-0.027,0.017 -0.048,0.04 -0.063,0.069c-0.015,0.029 -0.023,0.061 -0.022,0.096l0,0.216l-0.125,-0Z" style="fill:#0f172a;fill-rule:nonzero;"/></g><g transform="matrix(16.917015,0,0,16.917015,152.893587,29.086623)"><path d="M0.247,0.013c-0.067,0 -0.119,-0.013 -0.157,-0.04c-0.037,-0.027 -0.056,-0.064 -0.056,-0.112c0,-0.029 0.007,-0.054 0.022,-0.075c0.015,-0.021 0.036,-0.038 0.065,-0.051c0.029,-0.013 0.064,-0.022 0.107,-0.026l0.227,-0.025c0.017,-0.002 0.03,-0.006 0.039,-0.013c0.008,-0.007 0.013,-0.017 0.013,-0.03l0,-0.001c0,-0.017 -0.006,-0.032 -0.019,-0.044c-0.013,-0.012 -0.03,-0.021 -0.054,-0.028c-0.023,-0.006 -0.051,-0.009 -0.084,-0.009c-0.049,0 -0.087,0.006 -0.115,0.018c-0.028,0.012 -0.045,0.031 -0.05,0.055l-0.125,0c0.005,-0.034 0.019,-0.063 0.044,-0.087c0.024,-0.024 0.057,-0.041 0.099,-0.054c0.042,-0.012 0.092,-0.019 0.15,-0.019c0.062,0 0.113,0.007 0.155,0.021c0.041,0.014 0.072,0.034 0.093,0.061c0.021,0.027 0.031,0.061 0.031,0.102l0,0.345l-0.12,-0l0,-0.161l0.013,0.016c-0.015,0.034 -0.035,0.063 -0.062,0.086c-0.026,0.024 -0.057,0.041 -0.094,0.054c-0.036,0.012 -0.077,0.018 -0.122,0.018Zm0.041,-0.089c0.03,0 0.059,-0.004 0.085,-0.013c0.026,-0.008 0.05,-0.02 0.07,-0.035c0.02,-0.015 0.036,-0.032 0.047,-0.052c0.011,-0.02 0.017,-0.041 0.017,-0.063l0,-0.059l0.021,0.03c-0.011,0.006 -0.024,0.011 -0.039,0.015c-0.016,0.004 -0.037,0.008 -0.064,0.011l-0.182,0.023c-0.027,0.003 -0.046,0.011 -0.059,0.021c-0.013,0.011 -0.019,0.026 -0.019,0.044c0,0.025 0.01,0.044 0.031,0.057c0.021,0.013 0.052,0.019 0.093,0.019Z" style="fill:#0f172a;fill-rule:nonzero;"/></g><g transform="matrix(16.917015,0,0,16.917015,164.386392,29.086623)"><path d="M0.054,-0l0,-0.514l0.125,0l0,0.149l-0.012,-0.016c0.014,-0.034 0.033,-0.061 0.057,-0.083c0.024,-0.021 0.053,-0.038 0.086,-0.048c0.033,-0.011 0.069,-0.016 0.108,-0.016c0.04,0 0.075,0.005 0.106,0.016c0.031,0.01 0.057,0.026 0.078,0.047c0.021,0.021 0.038,0.046 0.049,0.076c0.011,0.03 0.017,0.065 0.017,0.104l0,0.285l-0.125,-0l0,-0.26c0,-0.036 -0.006,-0.067 -0.019,-0.093c-0.012,-0.026 -0.031,-0.046 -0.057,-0.06c-0.025,-0.014 -0.058,-0.021 -0.097,-0.021c-0.04,0 -0.074,0.008 -0.103,0.023c-0.029,0.015 -0.051,0.037 -0.067,0.064c-0.016,0.027 -0.024,0.057 -0.024,0.091l0,0.256l-0.125,-0Z" style="fill:#0f172a;fill-rule:nonzero;"/></g><g transform="matrix(16.917015,0,0,16.917015,176.535006,29.086623)"><path d="M0.365,0.014c-0.068,0 -0.127,-0.011 -0.177,-0.034c-0.05,-0.022 -0.088,-0.054 -0.115,-0.095c-0.027,-0.041 -0.04,-0.089 -0.04,-0.143c0,-0.032 0.005,-0.063 0.015,-0.091c0.01,-0.028 0.024,-0.053 0.043,-0.075c0.019,-0.022 0.042,-0.041 0.069,-0.057c0.027,-0.016 0.058,-0.028 0.092,-0.036c0.035,-0.008 0.072,-0.012 0.113,-0.012c0.069,0 0.128,0.011 0.178,0.033c0.05,0.022 0.088,0.054 0.115,0.094c0.027,0.04 0.04,0.088 0.04,0.143c0,0.033 -0.005,0.063 -0.015,0.091c-0.01,0.028 -0.024,0.053 -0.043,0.075c-0.019,0.022 -0.042,0.041 -0.069,0.057c-0.027,0.016 -0.058,0.027 -0.093,0.036c-0.035,0.008 -0.073,0.012 -0.114,0.012Zm0,-0.092c0.027,0 0.052,-0.003 0.074,-0.009c0.022,-0.006 0.041,-0.014 0.057,-0.025c0.016,-0.011 0.03,-0.024 0.041,-0.039c0.011,-0.015 0.019,-0.031 0.024,-0.049c0.005,-0.018 0.008,-0.037 0.008,-0.057c0,-0.034 -0.007,-0.064 -0.022,-0.091c-0.015,-0.027 -0.037,-0.048 -0.067,-0.064c-0.03,-0.016 -0.068,-0.023 -0.114,-0.023c-0.027,0 -0.051,0.003 -0.073,0.009c-0.022,0.006 -0.041,0.014 -0.057,0.025c-0.016,0.011 -0.03,0.024 -0.041,0.038c-0.011,0.015 -0.019,0.031 -0.025,0.049c-0.005,0.018 -0.008,0.037 -0.008,0.057c0,0.033 0.008,0.064 0.023,0.091c0.015,0.027 0.038,0.049 0.068,0.065c0.03,0.016 0.068,0.024 0.113,0.024Z" style="fill:#0f172a;fill-rule:nonzero;"/></g><g transform="matrix(16.917015,0,0,16.917015,188.894533,29.086623)"></g><g transform="matrix(16.917015,0,0,16.917015,193.791303,29.086623)"><path d="M0.07,-0l0,-0.714l0.49,0c0.047,0 0.087,0.008 0.122,0.023c0.035,0.015 0.062,0.037 0.081,0.066c0.019,0.029 0.029,0.064 0.029,0.106c0,0.033 -0.006,0.062 -0.019,0.088c-0.013,0.026 -0.031,0.047 -0.057,0.064c-0.025,0.016 -0.057,0.027 -0.095,0.032l0,-0.009c0.034,0.002 0.061,0.008 0.08,0.018c0.019,0.01 0.035,0.025 0.045,0.043c0.011,0.019 0.02,0.042 0.028,0.071l0.061,0.213l-0.135,-0l-0.056,-0.199c-0.008,-0.029 -0.02,-0.05 -0.035,-0.064c-0.016,-0.014 -0.039,-0.021 -0.07,-0.021l-0.341,0l0,0.284l-0.13,-0Zm0.13,-0.385l0.334,0c0.024,0 0.045,-0.004 0.063,-0.012c0.018,-0.008 0.033,-0.021 0.043,-0.038c0.01,-0.017 0.015,-0.039 0.015,-0.066c0,-0.037 -0.011,-0.065 -0.034,-0.083c-0.023,-0.018 -0.052,-0.027 -0.087,-0.027l-0.334,0l0,0.227Z" style="fill:#0f172a;fill-rule:nonzero;"/></g><g transform="matrix(16.917015,0,0,16.917015,208.210594,29.086623)"><path d="M0.365,0.014c-0.068,0 -0.127,-0.011 -0.177,-0.034c-0.05,-0.022 -0.088,-0.054 -0.115,-0.095c-0.027,-0.041 -0.04,-0.089 -0.04,-0.143c0,-0.032 0.005,-0.063 0.015,-0.091c0.01,-0.028 0.024,-0.053 0.043,-0.075c0.019,-0.022 0.042,-0.041 0.069,-0.057c0.027,-0.016 0.058,-0.028 0.092,-0.036c0.035,-0.008 0.072,-0.012 0.113,-0.012c0.069,0 0.128,0.011 0.178,0.033c0.05,0.022 0.088,0.054 0.115,0.094c0.027,0.04 0.04,0.088 0.04,0.143c0,0.033 -0.005,0.063 -0.015,0.091c-0.01,0.028 -0.024,0.053 -0.043,0.075c-0.019,0.022 -0.042,0.041 -0.069,0.057c-0.027,0.016 -0.058,0.027 -0.093,0.036c-0.035,0.008 -0.073,0.012 -0.114,0.012Zm0,-0.092c0.027,0 0.052,-0.003 0.074,-0.009c0.022,-0.006 0.041,-0.014 0.057,-0.025c0.016,-0.011 0.03,-0.024 0.041,-0.039c0.011,-0.015 0.019,-0.031 0.024,-0.049c0.005,-0.018 0.008,-0.037 0.008,-0.057c0,-0.034 -0.007,-0.064 -0.022,-0.091c-0.015,-0.027 -0.037,-0.048 -0.067,-0.064c-0.03,-0.016 -0.068,-0.023 -0.114,-0.023c-0.027,0 -0.051,0.003 -0.073,0.009c-0.022,0.006 -0.041,0.014 -0.057,0.025c-0.016,0.011 -0.03,0.024 -0.041,0.038c-0.011,0.015 -0.019,0.031 -0.025,0.049c-0.005,0.018 -0.008,0.037 -0.008,0.057c0,0.033 0.008,0.064 0.023,0.091c0.015,0.027 0.038,0.049 0.068,0.065c0.03,0.016 0.068,0.024 0.113,0.024Z" style="fill:#0f172a;fill-rule:nonzero;"/></g><g transform="matrix(16.917015,0,0,16.917015,220.570121,29.086623)"><path d="M0.054,-0l0,-0.514l0.125,0l0,0.136l-0.013,-0.01c0.013,-0.034 0.03,-0.062 0.052,-0.082c0.021,-0.02 0.045,-0.035 0.072,-0.044c0.027,-0.009 0.054,-0.013 0.083,-0.013c0.032,0 0.062,0.005 0.088,0.015c0.027,0.01 0.049,0.026 0.068,0.047c0.018,0.021 0.031,0.049 0.039,0.082l-0.019,-0.001c0.01,-0.035 0.027,-0.064 0.048,-0.084c0.022,-0.021 0.047,-0.036 0.075,-0.045c0.028,-0.009 0.057,-0.014 0.087,-0.014c0.041,0 0.077,0.009 0.108,0.026c0.031,0.017 0.055,0.042 0.071,0.075c0.017,0.033 0.025,0.072 0.025,0.12l0,0.307l-0.124,-0l0,-0.291c0,-0.033 -0.005,-0.06 -0.015,-0.081c-0.01,-0.021 -0.024,-0.037 -0.042,-0.046c-0.018,-0.01 -0.04,-0.015 -0.064,-0.015c-0.028,0 -0.053,0.006 -0.075,0.019c-0.022,0.012 -0.04,0.03 -0.053,0.054c-0.013,0.023 -0.019,0.051 -0.019,0.083l0,0.278l-0.125,-0l0,-0.291c0,-0.05 -0.011,-0.086 -0.033,-0.109c-0.022,-0.023 -0.051,-0.034 -0.088,-0.034c-0.028,0 -0.053,0.006 -0.075,0.019c-0.022,0.012 -0.04,0.03 -0.053,0.054c-0.013,0.023 -0.02,0.051 -0.02,0.083l0,0.278l-0.125,-0Z" style="fill:#0f172a;fill-rule:nonzero;"/></g><g transform="matrix(16.917015,0,0,16.917015,237.701816,29.086623)"><path d="M0.247,0.013c-0.067,0 -0.119,-0.013 -0.157,-0.04c-0.037,-0.027 -0.056,-0.064 -0.056,-0.112c0,-0.029 0.007,-0.054 0.022,-0.075c0.015,-0.021 0.036,-0.038 0.065,-0.051c0.029,-0.013 0.064,-0.022 0.107,-0.026l0.227,-0.025c0.017,-0.002 0.03,-0.006 0.039,-0.013c0.008,-0.007 0.013,-0.017 0.013,-0.03l0,-0.001c0,-0.017 -0.006,-0.032 -0.019,-0.044c-0.013,-0.012 -0.03,-0.021 -0.054,-0.028c-0.023,-0.006 -0.051,-0.009 -0.084,-0.009c-0.049,0 -0.087,0.006 -0.115,0.018c-0.028,0.012 -0.045,0.031 -0.05,0.055l-0.125,0c0.005,-0.034 0.019,-0.063 0.044,-0.087c0.024,-0.024 0.057,-0.041 0.099,-0.054c0.042,-0.012 0.092,-0.019 0.15,-0.019c0.062,0 0.113,0.007 0.155,0.021c0.041,0.014 0.072,0.034 0.093,0.061c0.021,0.027 0.031,0.061 0.031,0.102l0,0.345l-0.12,-0l0,-0.161l0.013,0.016c-0.015,0.034 -0.035,0.063 -0.062,0.086c-0.026,0.024 -0.057,0.041 -0.094,0.054c-0.036,0.012 -0.077,0.018 -0.122,0.018Zm0.041,-0.089c0.03,0 0.059,-0.004 0.085,-0.013c0.026,-0.008 0.05,-0.02 0.07,-0.035c0.02,-0.015 0.036,-0.032 0.047,-0.052c0.011,-0.02 0.017,-0.041 0.017,-0.063l0,-0.059l0.021,0.03c-0.011,0.006 -0.024,0.011 -0.039,0.015c-0.016,0.004 -0.037,0.008 -0.064,0.011l-0.182,0.023c-0.027,0.003 -0.046,0.011 -0.059,0.021c-0.013,0.011 -0.019,0.026 -0.019,0.044c0,0.025 0.01,0.044 0.031,0.057c0.021,0.013 0.052,0.019 0.093,0.019Z" style="fill:#0f172a;fill-rule:nonzero;"/></g><g transform="matrix(16.917015,0,0,16.917015,249.194621,29.086623)"><path d="M0.054,-0l0,-0.514l0.125,0l0,0.149l-0.012,-0.016c0.014,-0.034 0.033,-0.061 0.057,-0.083c0.024,-0.021 0.053,-0.038 0.086,-0.048c0.033,-0.011 0.069,-0.016 0.108,-0.016c0.04,0 0.075,0.005 0.106,0.016c0.031,0.01 0.057,0.026 0.078,0.047c0.021,0.021 0.038,0.046 0.049,0.076c0.011,0.03 0.017,0.065 0.017,0.104l0,0.285l-0.125,-0l0,-0.26c0,-0.036 -0.006,-0.067 -0.019,-0.093c-0.012,-0.026 -0.031,-0.046 -0.057,-0.06c-0.025,-0.014 -0.058,-0.021 -0.097,-0.021c-0.04,0 -0.074,0.008 -0.103,0.023c-0.029,0.015 -0.051,0.037 -0.067,0.064c-0.016,0.027 -0.024,0.057 -0.024,0.091l0,0.256l-0.125,-0Z" style="fill:#0f172a;fill-rule:nonzero;"/></g><g transform="matrix(16.917015,0,0,16.917015,261.343235,29.086623)"><path d="M0.365,0.014c-0.068,0 -0.127,-0.011 -0.177,-0.034c-0.05,-0.022 -0.088,-0.054 -0.115,-0.095c-0.027,-0.041 -0.04,-0.089 -0.04,-0.143c0,-0.032 0.005,-0.063 0.015,-0.091c0.01,-0.028 0.024,-0.053 0.043,-0.075c0.019,-0.022 0.042,-0.041 0.069,-0.057c0.027,-0.016 0.058,-0.028 0.092,-0.036c0.035,-0.008 0.072,-0.012 0.113,-0.012c0.069,0 0.128,0.011 0.178,0.033c0.05,0.022 0.088,0.054 0.115,0.094c0.027,0.04 0.04,0.088 0.04,0.143c0,0.033 -0.005,0.063 -0.015,0.091c-0.01,0.028 -0.024,0.053 -0.043,0.075c-0.019,0.022 -0.042,0.041 -0.069,0.057c-0.027,0.016 -0.058,0.027 -0.093,0.036c-0.035,0.008 -0.073,0.012 -0.114,0.012Zm0,-0.092c0.027,0 0.052,-0.003 0.074,-0.009c0.022,-0.006 0.041,-0.014 0.057,-0.025c0.016,-0.011 0.03,-0.024 0.041,-0.039c0.011,-0.015 0.019,-0.031 0.024,-0.049c0.005,-0.018 0.008,-0.037 0.008,-0.057c0,-0.034 -0.007,-0.064 -0.022,-0.091c-0.015,-0.027 -0.037,-0.048 -0.067,-0.064c-0.03,-0.016 -0.068,-0.023 -0.114,-0.023c-0.027,0 -0.051,0.003 -0.073,0.009c-0.022,0.006 -0.041,0.014 -0.057,0.025c-0.016,0.011 -0.03,0.024 -0.041,0.038c-0.011,0.015 -0.019,0.031 -0.025,0.049c-0.005,0.018 -0.008,0.037 -0.008,0.057c0,0.033 0.008,0.064 0.023,0.091c0.015,0.027 0.038,0.049 0.068,0.065c0.03,0.016 0.068,0.024 0.113,0.024Z" style="fill:#0f172a;fill-rule:nonzero;"/></g><g transform="matrix(16.917015,0,0,16.917015,273.702762,29.086623)"></g><g transform="matrix(13.928123,0,0,13.928123,85.234378,48.182285)"><path d="M0.078,-0l0,-0.714l0.084,0l0,0.645l0.524,-0l0,0.069l-0.608,-0Z" style="fill:#2c5037;fill-rule:nonzero;"/></g><g transform="matrix(13.928123,0,0,13.928123,95.201004,48.182285)"><path d="M0.063,-0l0,-0.514l0.081,0l0,0.514l-0.081,-0Zm-0.006,-0.613l0,-0.101l0.094,0l0,0.101l-0.094,0Z" style="fill:#2c5037;fill-rule:nonzero;"/></g><g transform="matrix(13.928123,0,0,13.928123,98.095095,48.182285)"><path d="M0.358,0.014c-0.064,0 -0.12,-0.011 -0.168,-0.033c-0.048,-0.022 -0.085,-0.054 -0.112,-0.095c-0.027,-0.041 -0.04,-0.089 -0.04,-0.144c0,-0.033 0.005,-0.063 0.014,-0.091c0.01,-0.028 0.024,-0.053 0.043,-0.075c0.019,-0.022 0.041,-0.041 0.067,-0.056c0.026,-0.016 0.056,-0.027 0.089,-0.035c0.033,-0.008 0.069,-0.012 0.107,-0.012c0.054,0 0.102,0.008 0.144,0.023c0.042,0.015 0.077,0.036 0.103,0.063c0.027,0.026 0.043,0.056 0.05,0.089l-0.086,0c-0.008,-0.019 -0.021,-0.037 -0.039,-0.054c-0.018,-0.017 -0.041,-0.03 -0.069,-0.041c-0.028,-0.01 -0.062,-0.016 -0.102,-0.016c-0.031,-0 -0.059,0.003 -0.084,0.01c-0.025,0.007 -0.047,0.016 -0.066,0.028c-0.019,0.012 -0.035,0.027 -0.048,0.044c-0.013,0.017 -0.023,0.036 -0.029,0.057c-0.006,0.021 -0.009,0.043 -0.009,0.067c0,0.04 0.009,0.075 0.027,0.106c0.018,0.031 0.044,0.056 0.079,0.074c0.035,0.018 0.078,0.027 0.13,0.027c0.059,0 0.105,-0.011 0.138,-0.032c0.033,-0.022 0.057,-0.048 0.072,-0.078l0.086,0c-0.009,0.034 -0.026,0.064 -0.052,0.091c-0.026,0.026 -0.06,0.047 -0.102,0.062c-0.041,0.015 -0.089,0.022 -0.143,0.022Z" style="fill:#2c5037;fill-rule:nonzero;"/></g><g transform="matrix(13.928123,0,0,13.928123,107.6443,48.182285)"><rect x="0.076" y="-0.109" width="0.11" height="0.109" style="fill:#2c5037;fill-rule:nonzero;"/></g><g transform="matrix(13.928123,0,0,13.928123,111.29389,48.182285)"><path d="M0.078,-0l0,-0.714l0.462,0c0.033,0 0.063,0.004 0.091,0.013c0.028,0.009 0.052,0.022 0.073,0.04c0.021,0.018 0.037,0.04 0.048,0.066c0.011,0.026 0.017,0.056 0.017,0.091c0,0.034 -0.006,0.065 -0.017,0.091c-0.012,0.026 -0.028,0.048 -0.048,0.065c-0.021,0.017 -0.045,0.03 -0.073,0.039c-0.028,0.009 -0.058,0.013 -0.091,0.013l-0.377,0l0,0.297l-0.085,-0Zm0.085,-0.366l0.365,0c0.033,0 0.06,-0.006 0.083,-0.017c0.023,-0.011 0.04,-0.027 0.051,-0.048c0.012,-0.021 0.018,-0.046 0.018,-0.074c0,-0.043 -0.013,-0.077 -0.039,-0.103c-0.026,-0.025 -0.064,-0.038 -0.112,-0.038l-0.365,0l0,0.28Z" style="fill:#2c5037;fill-rule:nonzero;"/></g><g transform="matrix(13.928123,0,0,13.928123,122.639822,48.182285)"><path d="M0.32,0.014c-0.051,0 -0.094,-0.005 -0.129,-0.014c-0.035,-0.009 -0.064,-0.022 -0.086,-0.038c-0.022,-0.016 -0.038,-0.033 -0.049,-0.053c-0.011,-0.019 -0.017,-0.039 -0.019,-0.059l0.084,0c0.004,0.015 0.012,0.03 0.025,0.045c0.013,0.015 0.033,0.028 0.061,0.039c0.028,0.01 0.065,0.016 0.113,0.016c0.046,0 0.082,-0.004 0.11,-0.012c0.027,-0.008 0.047,-0.019 0.059,-0.033c0.012,-0.014 0.018,-0.029 0.018,-0.045c0,-0.017 -0.007,-0.033 -0.022,-0.047c-0.015,-0.015 -0.043,-0.025 -0.084,-0.03l-0.176,-0.025c-0.06,-0.008 -0.104,-0.023 -0.132,-0.045c-0.028,-0.022 -0.042,-0.051 -0.042,-0.09c0,-0.021 0.005,-0.041 0.016,-0.059c0.011,-0.018 0.027,-0.034 0.048,-0.048c0.022,-0.014 0.049,-0.024 0.081,-0.032c0.033,-0.008 0.071,-0.012 0.115,-0.012c0.056,0 0.103,0.006 0.141,0.019c0.037,0.013 0.066,0.03 0.087,0.053c0.02,0.022 0.033,0.049 0.038,0.078l-0.084,0c-0.004,-0.016 -0.012,-0.03 -0.025,-0.043c-0.013,-0.013 -0.031,-0.024 -0.056,-0.032c-0.025,-0.008 -0.059,-0.012 -0.1,-0.012c-0.039,-0 -0.072,0.004 -0.098,0.011c-0.026,0.007 -0.046,0.017 -0.058,0.029c-0.013,0.012 -0.019,0.027 -0.019,0.043c0,0.021 0.008,0.036 0.025,0.048c0.017,0.011 0.042,0.019 0.075,0.024l0.169,0.023c0.038,0.005 0.072,0.013 0.1,0.024c0.028,0.011 0.05,0.026 0.066,0.045c0.016,0.019 0.023,0.043 0.023,0.073c0,0.026 -0.006,0.049 -0.019,0.069c-0.013,0.02 -0.031,0.036 -0.055,0.049c-0.024,0.013 -0.052,0.023 -0.086,0.03c-0.034,0.007 -0.071,0.01 -0.113,0.01Z" style="fill:#2c5037;fill-rule:nonzero;"/></g><g transform="matrix(13.928123,0,0,13.928123,131.402298,48.182285)"><path d="M0.063,-0l0,-0.514l0.081,0l0,0.514l-0.081,-0Zm-0.006,-0.613l0,-0.101l0.094,0l0,0.101l-0.094,0Z" style="fill:#2c5037;fill-rule:nonzero;"/></g><g transform="matrix(13.928123,0,0,13.928123,134.296389,48.182285)"><path d="M0.358,0.014c-0.064,0 -0.12,-0.011 -0.168,-0.033c-0.048,-0.022 -0.085,-0.054 -0.112,-0.095c-0.027,-0.041 -0.04,-0.089 -0.04,-0.144c0,-0.033 0.005,-0.063 0.014,-0.091c0.01,-0.028 0.024,-0.053 0.043,-0.075c0.019,-0.022 0.041,-0.041 0.067,-0.056c0.026,-0.016 0.056,-0.027 0.089,-0.035c0.033,-0.008 0.069,-0.012 0.107,-0.012c0.054,0 0.102,0.008 0.144,0.023c0.042,0.015 0.077,0.036 0.103,0.063c0.027,0.026 0.043,0.056 0.05,0.089l-0.086,0c-0.008,-0.019 -0.021,-0.037 -0.039,-0.054c-0.018,-0.017 -0.041,-0.03 -0.069,-0.041c-0.028,-0.01 -0.062,-0.016 -0.102,-0.016c-0.031,-0 -0.059,0.003 -0.084,0.01c-0.025,0.007 -0.047,0.016 -0.066,0.028c-0.019,0.012 -0.035,0.027 -0.048,0.044c-0.013,0.017 -0.023,0.036 -0.029,0.057c-0.006,0.021 -0.009,0.043 -0.009,0.067c0,0.04 0.009,0.075 0.027,0.106c0.018,0.031 0.044,0.056 0.079,0.074c0.035,0.018 0.078,0.027 0.13,0.027c0.059,0 0.105,-0.011 0.138,-0.032c0.033,-0.022 0.057,-0.048 0.072,-0.078l0.086,0c-0.009,0.034 -0.026,0.064 -0.052,0.091c-0.026,0.026 -0.06,0.047 -0.102,0.062c-0.041,0.015 -0.089,0.022 -0.143,0.022Z" style="fill:#2c5037;fill-rule:nonzero;"/></g><g transform="matrix(13.928123,0,0,13.928123,143.929162,48.182285)"><path d="M0.359,0.014c-0.064,0 -0.12,-0.011 -0.169,-0.033c-0.048,-0.022 -0.086,-0.054 -0.113,-0.095c-0.027,-0.041 -0.04,-0.089 -0.04,-0.144c0,-0.033 0.005,-0.063 0.015,-0.091c0.01,-0.028 0.024,-0.053 0.043,-0.075c0.019,-0.022 0.041,-0.041 0.067,-0.056c0.026,-0.016 0.056,-0.027 0.089,-0.035c0.033,-0.008 0.069,-0.012 0.107,-0.012c0.065,0 0.121,0.011 0.169,0.033c0.048,0.022 0.086,0.053 0.112,0.093c0.027,0.04 0.04,0.088 0.04,0.144c0,0.033 -0.005,0.064 -0.015,0.092c-0.01,0.028 -0.024,0.053 -0.042,0.075c-0.019,0.022 -0.041,0.041 -0.067,0.057c-0.026,0.015 -0.056,0.027 -0.089,0.035c-0.033,0.008 -0.069,0.012 -0.108,0.012Zm-0,-0.064c0.031,0 0.059,-0.003 0.084,-0.01c0.025,-0.007 0.047,-0.016 0.066,-0.029c0.019,-0.013 0.035,-0.028 0.047,-0.045c0.013,-0.017 0.022,-0.036 0.029,-0.057c0.006,-0.021 0.01,-0.043 0.01,-0.067c0,-0.04 -0.009,-0.075 -0.026,-0.106c-0.018,-0.031 -0.044,-0.055 -0.079,-0.073c-0.035,-0.018 -0.078,-0.027 -0.13,-0.027c-0.031,-0 -0.058,0.003 -0.084,0.01c-0.025,0.007 -0.047,0.016 -0.066,0.028c-0.019,0.012 -0.035,0.027 -0.048,0.044c-0.013,0.017 -0.023,0.036 -0.029,0.057c-0.006,0.021 -0.009,0.043 -0.009,0.067c0,0.039 0.009,0.075 0.027,0.106c0.018,0.031 0.044,0.056 0.079,0.074c0.035,0.018 0.078,0.027 0.129,0.027Z" style="fill:#2c5037;fill-rule:nonzero;"/></g><g transform="matrix(13.928123,0,0,13.928123,153.916891,48.182285)"><rect x="0.062" y="-0.714" width="0.081" height="0.714" style="fill:#2c5037;fill-rule:nonzero;"/></g><g transform="matrix(13.928123,0,0,13.928123,156.782283,48.182285)"><path d="M0.359,0.014c-0.064,0 -0.12,-0.011 -0.169,-0.033c-0.048,-0.022 -0.086,-0.054 -0.113,-0.095c-0.027,-0.041 -0.04,-0.089 -0.04,-0.144c0,-0.033 0.005,-0.063 0.015,-0.091c0.01,-0.028 0.024,-0.053 0.043,-0.075c0.019,-0.022 0.041,-0.041 0.067,-0.056c0.026,-0.016 0.056,-0.027 0.089,-0.035c0.033,-0.008 0.069,-0.012 0.107,-0.012c0.065,0 0.121,0.011 0.169,0.033c0.048,0.022 0.086,0.053 0.112,0.093c0.027,0.04 0.04,0.088 0.04,0.144c0,0.033 -0.005,0.064 -0.015,0.092c-0.01,0.028 -0.024,0.053 -0.042,0.075c-0.019,0.022 -0.041,0.041 -0.067,0.057c-0.026,0.015 -0.056,0.027 -0.089,0.035c-0.033,0.008 -0.069,0.012 -0.108,0.012Zm-0,-0.064c0.031,0 0.059,-0.003 0.084,-0.01c0.025,-0.007 0.047,-0.016 0.066,-0.029c0.019,-0.013 0.035,-0.028 0.047,-0.045c0.013,-0.017 0.022,-0.036 0.029,-0.057c0.006,-0.021 0.01,-0.043 0.01,-0.067c0,-0.04 -0.009,-0.075 -0.026,-0.106c-0.018,-0.031 -0.044,-0.055 -0.079,-0.073c-0.035,-0.018 -0.078,-0.027 -0.13,-0.027c-0.031,-0 -0.058,0.003 -0.084,0.01c-0.025,0.007 -0.047,0.016 -0.066,0.028c-0.019,0.012 -0.035,0.027 -0.048,0.044c-0.013,0.017 -0.023,0.036 -0.029,0.057c-0.006,0.021 -0.009,0.043 -0.009,0.067c0,0.039 0.009,0.075 0.027,0.106c0.018,0.031 0.044,0.056 0.079,0.074c0.035,0.018 0.078,0.027 0.129,0.027Z" style="fill:#2c5037;fill-rule:nonzero;"/></g><g transform="matrix(13.928123,0,0,13.928123,166.770012,48.182285)"><path d="M0.362,0.204c-0.055,0 -0.103,-0.006 -0.145,-0.019c-0.042,-0.012 -0.075,-0.03 -0.1,-0.054c-0.025,-0.024 -0.042,-0.053 -0.049,-0.087l0.086,-0c0.014,0.034 0.038,0.059 0.072,0.074c0.034,0.015 0.08,0.023 0.139,0.023c0.046,0 0.087,-0.007 0.121,-0.021c0.034,-0.014 0.061,-0.033 0.08,-0.058c0.019,-0.025 0.028,-0.053 0.028,-0.086l0,-0.145l0.01,0.011c-0.017,0.033 -0.04,0.06 -0.068,0.081c-0.028,0.021 -0.06,0.037 -0.094,0.047c-0.035,0.01 -0.07,0.015 -0.107,0.015c-0.056,0 -0.106,-0.011 -0.15,-0.032c-0.045,-0.021 -0.08,-0.051 -0.106,-0.09c-0.026,-0.039 -0.039,-0.084 -0.039,-0.136c0,-0.031 0.005,-0.06 0.014,-0.087c0.01,-0.026 0.024,-0.05 0.042,-0.071c0.018,-0.021 0.039,-0.039 0.064,-0.053c0.025,-0.015 0.052,-0.026 0.081,-0.034c0.03,-0.008 0.061,-0.012 0.094,-0.012c0.037,0 0.073,0.005 0.107,0.015c0.035,0.01 0.066,0.025 0.094,0.046c0.028,0.021 0.051,0.048 0.068,0.081l-0.01,0.011l0,-0.138l0.08,0l0,0.497c0,0.037 -0.009,0.069 -0.026,0.096c-0.017,0.028 -0.04,0.051 -0.069,0.069c-0.029,0.019 -0.062,0.033 -0.1,0.042c-0.037,0.009 -0.077,0.014 -0.118,0.014Zm-0.011,-0.281c0.028,-0 0.054,-0.003 0.078,-0.009c0.024,-0.006 0.047,-0.015 0.067,-0.026c0.02,-0.011 0.038,-0.025 0.052,-0.041c0.015,-0.016 0.026,-0.034 0.034,-0.054c0.008,-0.02 0.012,-0.042 0.012,-0.065c0,-0.039 -0.011,-0.073 -0.032,-0.102c-0.021,-0.029 -0.051,-0.051 -0.087,-0.067c-0.037,-0.016 -0.078,-0.024 -0.124,-0.024c-0.028,0 -0.053,0.003 -0.077,0.009c-0.024,0.006 -0.045,0.014 -0.063,0.025c-0.018,0.011 -0.034,0.024 -0.047,0.04c-0.013,0.016 -0.023,0.034 -0.03,0.054c-0.007,0.02 -0.01,0.042 -0.01,0.065c0,0.039 0.009,0.073 0.028,0.102c0.019,0.029 0.045,0.052 0.079,0.068c0.034,0.016 0.075,0.024 0.121,0.024Z" style="fill:#2c5037;fill-rule:nonzero;"/></g><g transform="matrix(13.928123,0,0,13.928123,177.001273,48.182285)"><path d="M0.063,-0l0,-0.514l0.081,0l0,0.514l-0.081,-0Zm0.001,-0.597l0.103,-0.137l0.095,0l-0.118,0.137l-0.08,0Z" style="fill:#2c5037;fill-rule:nonzero;"/></g><g transform="matrix(13.928123,0,0,13.928123,179.895364,48.182285)"><path d="M0.252,0.013c-0.068,0 -0.12,-0.013 -0.157,-0.04c-0.037,-0.027 -0.055,-0.064 -0.055,-0.112c0,-0.027 0.007,-0.051 0.021,-0.071c0.014,-0.02 0.034,-0.037 0.06,-0.05c0.026,-0.013 0.058,-0.021 0.096,-0.025l0.255,-0.029c0.02,-0.002 0.034,-0.007 0.043,-0.015c0.009,-0.008 0.014,-0.019 0.014,-0.033l0,-0.001c0,-0.019 -0.007,-0.037 -0.02,-0.052c-0.013,-0.015 -0.033,-0.027 -0.06,-0.036c-0.027,-0.009 -0.062,-0.013 -0.104,-0.013c-0.06,0 -0.105,0.009 -0.137,0.026c-0.031,0.017 -0.05,0.039 -0.056,0.066l-0.082,0c0.004,-0.03 0.016,-0.057 0.038,-0.08c0.022,-0.023 0.053,-0.041 0.092,-0.054c0.04,-0.013 0.088,-0.02 0.145,-0.02c0.062,0 0.112,0.007 0.151,0.021c0.039,0.014 0.068,0.034 0.086,0.06c0.018,0.026 0.028,0.056 0.028,0.091l0,0.355l-0.079,-0l0,-0.17l0.008,0.011c-0.015,0.037 -0.036,0.068 -0.063,0.094c-0.027,0.026 -0.06,0.045 -0.097,0.059c-0.037,0.013 -0.079,0.02 -0.125,0.02Zm0.022,-0.065c0.035,0 0.067,-0.005 0.098,-0.015c0.03,-0.01 0.057,-0.024 0.081,-0.042c0.023,-0.018 0.042,-0.038 0.055,-0.062c0.013,-0.023 0.02,-0.048 0.02,-0.074l0,-0.053l0.015,0.021c-0.012,0.005 -0.025,0.01 -0.039,0.013c-0.014,0.003 -0.035,0.007 -0.063,0.011l-0.221,0.028c-0.032,0.004 -0.055,0.013 -0.071,0.026c-0.016,0.013 -0.024,0.031 -0.024,0.054c0,0.031 0.013,0.054 0.038,0.07c0.025,0.015 0.062,0.023 0.111,0.023Z" style="fill:#2c5037;fill-rule:nonzero;"/></g><g transform="matrix(13.928123,0,0,13.928123,189.144903,48.182285)"></g></g><g><path d="M29.751,20.817c1.504,-0 2.946,0.597 4.009,1.66c1.063,1.063 1.66,2.505 1.66,4.009c-0,0.156 -0,0.312 -0,0.468c0,1.504 -0.597,2.946 -1.66,4.009c-1.063,1.063 -2.505,1.66 -4.009,1.66c-6.61,0 -17.471,0 -24.081,0c-1.504,0 -2.946,-0.597 -4.009,-1.66c-1.063,-1.063 -1.66,-2.505 -1.66,-4.009c0,-0.156 0,-0.312 0,-0.468c-0,-1.504 0.597,-2.946 1.66,-4.009c1.063,-1.063 2.505,-1.66 4.009,-1.66c6.61,-0 17.471,-0 24.081,-0Z" style="fill:#2c5037;"/><path d="M29.751,35.528c1.504,-0 2.946,0.597 4.009,1.66c1.063,1.063 1.66,2.505 1.66,4.009c-0,0.156 -0,0.312 -0,0.468c0,1.504 -0.597,2.946 -1.66,4.009c-1.063,1.063 -2.505,1.66 -4.009,1.66c-6.61,0 -17.471,0 -24.081,0c-1.504,0 -2.946,-0.597 -4.009,-1.66c-1.063,-1.063 -1.66,-2.505 -1.66,-4.009c0,-0.156 0,-0.312 0,-0.468c-0,-1.504 0.597,-2.946 1.66,-4.009c1.063,-1.063 2.505,-1.66 4.009,-1.66c6.61,-0 17.471,-0 24.081,-0Z" style="fill:#2c5037;"/><path d="M43.994,20.817c-1.504,-0 -2.946,0.597 -4.009,1.66c-1.063,1.063 -1.66,2.505 -1.66,4.009c0,0.156 0,0.312 0,0.468c-0,1.504 0.597,2.946 1.66,4.009c1.063,1.063 2.505,1.66 4.009,1.66c6.61,0 17.471,0 24.081,0c1.504,0 2.946,-0.597 4.009,-1.66c1.063,-1.063 1.66,-2.505 1.66,-4.009c-0,-0.156 -0,-0.312 -0,-0.468c0,-1.504 -0.597,-2.946 -1.66,-4.009c-1.063,-1.063 -2.505,-1.66 -4.009,-1.66c-6.61,-0 -17.471,-0 -24.081,-0Z" style="fill:#2c5037;"/><path d="M43.994,35.528c-1.504,-0 -2.946,0.597 -4.009,1.66c-1.063,1.063 -1.66,2.505 -1.66,4.009c0,0.156 0,0.312 0,0.468c-0,1.504 0.597,2.946 1.66,4.009c1.063,1.063 2.505,1.66 4.009,1.66c6.61,0 17.471,0 24.081,0c1.504,0 2.946,-0.597 4.009,-1.66c1.063,-1.063 1.66,-2.505 1.66,-4.009c-0,-0.156 -0,-0.312 -0,-0.468c0,-1.504 -0.597,-2.946 -1.66,-4.009c-1.063,-1.063 -2.505,-1.66 -4.009,-1.66c-6.61,-0 -17.471,-0 -24.081,-0Z" style="fill:#2c5037;"/><path d="M30.993,9.058c2.445,0 4.427,1.982 4.427,4.427l0,0.001c-0,2.445 -1.982,4.427 -4.427,4.427l-14.759,-0c-2.445,-0 -4.427,-1.982 -4.427,-4.427l-0,-0.001c0,-2.445 1.982,-4.427 4.427,-4.427l14.759,0Z" style="fill:#2c5037;"/><path d="M30.993,50.381c2.445,0 4.427,1.982 4.427,4.427l-0,0.001c-0,2.445 -1.982,4.427 -4.427,4.427l-20.21,0c-2.445,-0 -4.427,-1.982 -4.427,-4.427l0,-0.001c0,-2.445 1.982,-4.427 4.427,-4.427l20.21,-0Z" style="fill:#2c5037;"/><path d="M62.938,50.381c2.445,0 4.427,1.982 4.427,4.427l-0,0.001c-0,2.445 -1.982,4.427 -4.427,4.427l-20.21,0c-2.445,-0 -4.427,-1.982 -4.427,-4.427l0,-0.001c0,-2.445 1.982,-4.427 4.427,-4.427l20.21,-0Z" style="fill:#2c5037;"/><path d="M32.468,-0c1.63,0 2.952,1.321 2.952,2.952l0,0c-0,1.63 -1.321,2.952 -2.952,2.952l-5.904,-0c-1.63,-0 -2.952,-1.321 -2.952,-2.952l-0,-0c0,-1.63 1.321,-2.952 2.952,-2.952l5.904,0Z" style="fill:#2c5037;"/><path d="M53.583,62.128c1.63,0 2.952,1.321 2.952,2.952c-0,0 -0,0 -0,0c-0,1.63 -1.321,2.952 -2.952,2.952c-3.384,0 -8.897,0 -12.281,0c-1.63,-0 -2.952,-1.321 -2.952,-2.952c0,-0 0,-0 0,-0c0,-1.63 1.321,-2.952 2.952,-2.952c3.384,-0 8.897,-0 12.281,-0Z" style="fill:#2c5037;"/><path d="M32.468,61.985c1.63,0 2.952,1.321 2.952,2.952c-0,0 -0,0 -0,0c-0,1.63 -1.321,2.952 -2.952,2.952c-3.384,0 -8.897,0 -12.281,0c-1.63,-0 -2.952,-1.321 -2.952,-2.952c0,-0 0,-0 0,-0c0,-1.63 1.321,-2.952 2.952,-2.952c3.384,-0 8.897,-0 12.281,-0Z" style="fill:#2c5037;"/><path d="M47.179,-0c1.63,0 2.952,1.321 2.952,2.952l0,0c-0,1.63 -1.321,2.952 -2.952,2.952l-5.904,-0c-1.63,-0 -2.952,-1.321 -2.952,-2.952l-0,-0c0,-1.63 1.321,-2.952 2.952,-2.952l5.904,0Z" style="fill:#2c5037;"/><path d="M42.751,9.058c-2.445,0 -4.427,1.982 -4.427,4.427l-0,0.001c0,2.445 1.982,4.427 4.427,4.427l14.759,-0c2.445,-0 4.427,-1.982 4.427,-4.427l0,-0.001c-0,-2.445 -1.982,-4.427 -4.427,-4.427l-14.759,0Z" style="fill:#2c5037;"/></g></svg>
